mtllib ./Build_1.mtl
g Render
v 0.3893448 3.054738E-07 0.3494831
v -0.9080898 3.129244E-07 0.2678537
v 0.3893448 0.1000003 0.3494831
v -0.9080898 0.1000003 0.2678537
v 0.3830656 0.1000003 0.4492858
v -0.914369 0.1000003 0.3676564
v 0.3830656 3.054738E-07 0.4492858
v -0.914369 3.129244E-07 0.3676564
v 0.3893448 0.1000003 0.3494831
v -0.9080898 0.1000003 0.2678537
v 0.3830656 0.1000003 0.4492858
v -0.914369 0.1000003 0.3676564
v 0.3830656 3.054738E-07 0.4492858
v 0.3893448 3.054738E-07 0.3494831
v -0.9080898 3.129244E-07 0.2678537
v -0.914369 3.129244E-07 0.3676564
v -0.9080898 3.129244E-07 0.2678537
v -0.9080898 0.1000003 0.2678537
v -0.914369 0.1000003 0.3676564
v -0.914369 3.129244E-07 0.3676564
v 0.3830656 3.054738E-07 0.4492858
v 0.3830656 0.1000003 0.4492858
v 0.3893448 0.1000003 0.3494831
v 0.3893448 3.054738E-07 0.3494831
v 0.3543713 3.129244E-07 0.9053522
v -0.9430633 3.054738E-07 0.8237228
v 0.3543713 0.1000003 0.9053522
v -0.9430633 0.1000003 0.8237228
v 0.3480921 0.1000003 1.005155
v -0.9493425 0.1000003 0.9235255
v 0.3480921 3.129244E-07 1.005155
v -0.9493425 3.054738E-07 0.9235255
v 0.3543713 0.1000003 0.9053522
v -0.9430633 0.1000003 0.8237228
v 0.3480921 0.1000003 1.005155
v -0.9493425 0.1000003 0.9235255
v 0.3480921 3.129244E-07 1.005155
v 0.3543713 3.129244E-07 0.9053522
v -0.9430633 3.054738E-07 0.8237228
v -0.9493425 3.054738E-07 0.9235255
v -0.9430633 3.054738E-07 0.8237228
v -0.9430633 0.1000003 0.8237228
v -0.9493425 0.1000003 0.9235255
v -0.9493425 3.054738E-07 0.9235255
v 0.3480921 3.129244E-07 1.005155
v 0.3480921 0.1000003 1.005155
v 0.3543713 0.1000003 0.9053522
v 0.3543713 3.129244E-07 0.9053522
v -0.5037526 3.837049E-07 -0.03018284
v -0.6788424 2.346933E-07 1.257972
v -0.5037526 0.1000004 -0.03018284
v -0.6788424 0.1000002 1.257972
v -0.4046637 0.1000004 -0.01671433
v -0.5797535 0.1000002 1.271441
v -0.4046637 3.837049E-07 -0.01671433
v -0.5797535 2.346933E-07 1.271441
v -0.5037526 0.1000004 -0.03018284
v -0.6788424 0.1000002 1.257972
v -0.4046637 0.1000004 -0.01671433
v -0.5797535 0.1000002 1.271441
v -0.4046637 3.837049E-07 -0.01671433
v -0.5037526 3.837049E-07 -0.03018284
v -0.6788424 2.346933E-07 1.257972
v -0.5797535 2.346933E-07 1.271441
v -0.6788424 2.346933E-07 1.257972
v -0.6788424 0.1000002 1.257972
v -0.5797535 0.1000002 1.271441
v -0.5797535 2.346933E-07 1.271441
v -0.4046637 3.837049E-07 -0.01671433
v -0.4046637 0.1000004 -0.01671433
v -0.5037526 0.1000004 -0.03018284
v -0.5037526 3.837049E-07 -0.03018284
v -0.04007736 3.352761E-07 0.02617329
v -0.2217351 2.831221E-07 1.313419
v -0.04007736 0.1000003 0.02617329
v -0.2217351 0.1000003 1.313419
v 0.05894151 0.1000003 0.04014701
v -0.1227163 0.1000003 1.327392
v 0.05894151 3.352761E-07 0.04014701
v -0.1227163 2.831221E-07 1.327392
v -0.04007736 0.1000003 0.02617329
v -0.2217351 0.1000003 1.313419
v 0.05894151 0.1000003 0.04014701
v -0.1227163 0.1000003 1.327392
v 0.05894151 3.352761E-07 0.04014701
v -0.04007736 3.352761E-07 0.02617329
v -0.2217351 2.831221E-07 1.313419
v -0.1227163 2.831221E-07 1.327392
v -0.2217351 2.831221E-07 1.313419
v -0.2217351 0.1000003 1.313419
v -0.1227163 0.1000003 1.327392
v -0.1227163 2.831221E-07 1.327392
v 0.05894151 3.352761E-07 0.04014701
v 0.05894151 0.1000003 0.04014701
v -0.04007736 0.1000003 0.02617329
v -0.04007736 3.352761E-07 0.02617329

vn 0.06279188 3.462601E-17 -0.9980267
vn 0.06279188 3.462601E-17 -0.9980267
vn 0.06279188 3.462601E-17 -0.9980267
vn 0.06279188 3.462601E-17 -0.9980267
vn 5.16159E-09 1 3.247468E-10
vn 5.16159E-09 1 3.247468E-10
vn -0.06279188 -3.462601E-17 0.9980267
vn -0.06279188 -3.462601E-17 0.9980267
vn 5.16159E-09 1 3.247468E-10
vn 5.16159E-09 1 3.247468E-10
vn -0.06279188 -3.462601E-17 0.9980267
vn -0.06279188 -3.462601E-17 0.9980267
vn -5.16159E-09 -1 -3.247468E-10
vn -5.16159E-09 -1 -3.247468E-10
vn -5.16159E-09 -1 -3.247468E-10
vn -5.16159E-09 -1 -3.247468E-10
vn -0.9980266 5.171795E-09 -0.06279188
vn -0.9980266 5.171795E-09 -0.06279188
vn -0.9980266 5.171795E-09 -0.06279188
vn -0.9980266 5.171795E-09 -0.06279188
vn 0.9980266 -5.171795E-09 0.06279188
vn 0.9980266 -5.171795E-09 0.06279188
vn 0.9980266 -5.171795E-09 0.06279188
vn 0.9980266 -5.171795E-09 0.06279188
vn 0.06279188 0 -0.9980267
vn 0.06279188 0 -0.9980267
vn 0.06279188 0 -0.9980267
vn 0.06279188 0 -0.9980267
vn -5.41145E-09 1 -3.40467E-10
vn -5.41145E-09 1 -3.40467E-10
vn -0.06279188 0 0.9980267
vn -0.06279188 0 0.9980267
vn -5.41145E-09 1 -3.40467E-10
vn -5.41145E-09 1 -3.40467E-10
vn -0.06279188 0 0.9980267
vn -0.06279188 0 0.9980267
vn 5.41145E-09 -1 3.40467E-10
vn 5.41145E-09 -1 3.40467E-10
vn 5.41145E-09 -1 3.40467E-10
vn 5.41145E-09 -1 3.40467E-10
vn -0.9980266 -5.422149E-09 -0.06279188
vn -0.9980266 -5.422149E-09 -0.06279188
vn -0.9980266 -5.422149E-09 -0.06279188
vn -0.9980266 -5.422149E-09 -0.06279188
vn 0.9980266 5.422149E-09 0.06279188
vn 0.9980266 5.422149E-09 0.06279188
vn 0.9980266 5.422149E-09 0.06279188
vn 0.9980266 5.422149E-09 0.06279188
vn -0.9908886 2.090204E-14 -0.1346845
vn -0.9908886 2.090204E-14 -0.1346845
vn -0.9908886 2.090204E-14 -0.1346845
vn -0.9908886 2.090204E-14 -0.1346845
vn -1.511567E-08 1 1.112077E-07
vn -1.511567E-08 1 1.112077E-07
vn 0.9908886 -2.090204E-14 0.1346845
vn 0.9908886 -2.090204E-14 0.1346845
vn -1.511567E-08 1 1.112077E-07
vn -1.511567E-08 1 1.112077E-07
vn 0.9908886 -2.090204E-14 0.1346845
vn 0.9908886 -2.090204E-14 0.1346845
vn 1.511567E-08 -1 -1.112077E-07
vn 1.511567E-08 -1 -1.112077E-07
vn 1.511567E-08 -1 -1.112077E-07
vn 1.511567E-08 -1 -1.112077E-07
vn -0.1346844 -1.122303E-07 0.9908885
vn -0.1346844 -1.122303E-07 0.9908885
vn -0.1346844 -1.122303E-07 0.9908885
vn -0.1346844 -1.122303E-07 0.9908885
vn 0.1346844 1.122303E-07 -0.9908885
vn 0.1346844 1.122303E-07 -0.9908885
vn 0.1346844 1.122303E-07 -0.9908885
vn 0.1346844 1.122303E-07 -0.9908885
vn -0.9901887 -1.09933E-15 -0.1397368
vn -0.9901887 -1.09933E-15 -0.1397368
vn -0.9901887 -1.09933E-15 -0.1397368
vn -0.9901887 -1.09933E-15 -0.1397368
vn -5.871245E-09 1 4.160423E-08
vn -5.871245E-09 1 4.160423E-08
vn 0.9901887 1.09933E-15 0.1397368
vn 0.9901887 1.09933E-15 0.1397368
vn -5.871245E-09 1 4.160423E-08
vn -5.871245E-09 1 4.160423E-08
vn 0.9901887 1.09933E-15 0.1397368
vn 0.9901887 1.09933E-15 0.1397368
vn 5.871245E-09 -1 -4.160423E-08
vn 5.871245E-09 -1 -4.160423E-08
vn 5.871245E-09 -1 -4.160423E-08
vn 5.871245E-09 -1 -4.160423E-08
vn -0.1397368 -4.201647E-08 0.9901887
vn -0.1397368 -4.201647E-08 0.9901887
vn -0.1397368 -4.201647E-08 0.9901887
vn -0.1397368 -4.201647E-08 0.9901887
vn 0.1397368 4.201647E-08 -0.9901887
vn 0.1397368 4.201647E-08 -0.9901887
vn 0.1397368 4.201647E-08 -0.9901887
vn 0.1397368 4.201647E-08 -0.9901887

vt 0 0
vt 1 0
vt 0 1
vt 1 1
vt 0 1
vt 1 1
vt 0 1
vt 1 1
vt 0 0
vt 1 0
vt 0 0
vt 1 0
vt 0 0
vt 0 1
vt 1 1
vt 1 0
vt 0 0
vt 0 1
vt 1 1
vt 1 0
vt 0 0
vt 0 1
vt 1 1
vt 1 0
vt 0 0
vt 1 0
vt 0 1
vt 1 1
vt 0 1
vt 1 1
vt 0 1
vt 1 1
vt 0 0
vt 1 0
vt 0 0
vt 1 0
vt 0 0
vt 0 1
vt 1 1
vt 1 0
vt 0 0
vt 0 1
vt 1 1
vt 1 0
vt 0 0
vt 0 1
vt 1 1
vt 1 0
vt 0 0
vt 1 0
vt 0 1
vt 1 1
vt 0 1
vt 1 1
vt 0 1
vt 1 1
vt 0 0
vt 1 0
vt 0 0
vt 1 0
vt 0 0
vt 0 1
vt 1 1
vt 1 0
vt 0 0
vt 0 1
vt 1 1
vt 1 0
vt 0 0
vt 0 1
vt 1 1
vt 1 0
vt 0 0
vt 1 0
vt 0 1
vt 1 1
vt 0 1
vt 1 1
vt 0 1
vt 1 1
vt 0 0
vt 1 0
vt 0 0
vt 1 0
vt 0 0
vt 0 1
vt 1 1
vt 1 0
vt 0 0
vt 0 1
vt 1 1
vt 1 0
vt 0 0
vt 0 1
vt 1 1
vt 1 0

usemtl Block
usemap Block
f 3/3/3 1/1/1 4/4/4
f 4/4/4 1/1/1 2/2/2
f 5/5/5 9/9/9 6/6/6
f 6/6/6 9/9/9 10/10/10
f 7/7/7 11/11/11 8/8/8
f 8/8/8 11/11/11 12/12/12
f 14/14/14 13/13/13 15/15/15
f 15/15/15 13/13/13 16/16/16
f 18/18/18 17/17/17 19/19/19
f 19/19/19 17/17/17 20/20/20
f 22/22/22 21/21/21 23/23/23
f 23/23/23 21/21/21 24/24/24
f 27/27/27 25/25/25 28/28/28
f 28/28/28 25/25/25 26/26/26
f 29/29/29 33/33/33 30/30/30
f 30/30/30 33/33/33 34/34/34
f 31/31/31 35/35/35 32/32/32
f 32/32/32 35/35/35 36/36/36
f 38/38/38 37/37/37 39/39/39
f 39/39/39 37/37/37 40/40/40
f 42/42/42 41/41/41 43/43/43
f 43/43/43 41/41/41 44/44/44
f 46/46/46 45/45/45 47/47/47
f 47/47/47 45/45/45 48/48/48
f 51/51/51 49/49/49 52/52/52
f 52/52/52 49/49/49 50/50/50
f 53/53/53 57/57/57 54/54/54
f 54/54/54 57/57/57 58/58/58
f 55/55/55 59/59/59 56/56/56
f 56/56/56 59/59/59 60/60/60
f 62/62/62 61/61/61 63/63/63
f 63/63/63 61/61/61 64/64/64
f 66/66/66 65/65/65 67/67/67
f 67/67/67 65/65/65 68/68/68
f 70/70/70 69/69/69 71/71/71
f 71/71/71 69/69/69 72/72/72
f 75/75/75 73/73/73 76/76/76
f 76/76/76 73/73/73 74/74/74
f 77/77/77 81/81/81 78/78/78
f 78/78/78 81/81/81 82/82/82
f 79/79/79 83/83/83 80/80/80
f 80/80/80 83/83/83 84/84/84
f 86/86/86 85/85/85 87/87/87
f 87/87/87 85/85/85 88/88/88
f 90/90/90 89/89/89 91/91/91
f 91/91/91 89/89/89 92/92/92
f 94/94/94 93/93/93 95/95/95
f 95/95/95 93/93/93 96/96/96
